# File produced by Open Asset Import Library (http://www.assimp.sf.net)
# (assimp v3.1.137539927)

mtllib Stationwall1.mtl

# vertex positions
v 1008.309937 -20.720934 35.921772
v 1023.927490 -20.720934 35.921772
v 1023.932983 4.878831 35.921772
v 1008.309937 4.878812 35.921772
v 1026.260986 -27.022072 15.599032
v 1026.103027 -27.017948 24.305405
v 1024.521851 -27.016579 24.305405
v 1024.521851 -27.016567 15.599032
v 1039.248169 -23.668121 15.599032
v 1045.209473 -23.723280 15.599032
v 1045.209473 -23.723280 24.389730
v 1039.248169 -23.668121 24.305405
v 1024.521851 4.878812 15.312119
v 1024.521851 4.878812 24.305405
v 1024.521851 -20.475925 24.305405
v 1024.521851 -20.475925 15.599030
v 1016.256592 -20.475925 15.312121
v 1016.256592 4.878812 15.312121
v 1024.521851 39.917503 4.777853
v 1016.256592 39.917503 4.777853
v 1016.256592 40.370388 0.000034
v 1024.521851 40.370388 0.000034
v 1008.309937 37.032753 35.921772
v 1023.932983 37.032753 35.921772
v 1023.932983 54.255077 35.921772
v 1008.309937 54.255070 35.921772
v 1008.309937 30.665499 35.921772
v 1023.932983 30.665503 35.921772
v 1016.256592 29.103481 15.312121
v 1024.521851 29.103481 15.312119
v 1024.521851 35.170284 12.225414
v 1024.521851 54.255070 16.451395
v 1024.521851 54.255070 24.305405
v 1024.521851 37.032753 24.305405
v 1016.256592 35.170284 12.225415
v 1008.309937 -55.837280 24.305405
v 1008.309937 -55.837280 15.312121
v 1023.932983 -55.837280 15.312121
v 1023.932983 -55.837280 24.305405
v 1023.932983 -27.016579 35.921772
v 1008.309937 -27.016579 35.921772
v 1008.309937 -32.413685 35.921772
v 1023.932983 -32.413681 35.921772
v 1024.521851 -32.413685 24.305405
v 1024.521851 -32.413681 15.505975
v 1024.521851 -43.656437 15.312121
v 1024.521851 -55.837280 15.312121
v 1024.521851 -53.233868 11.827251
v 1024.521851 -43.413528 11.827251
v 1023.932983 -43.656437 35.921772
v 1008.309937 -43.656437 35.921772
v 1008.309937 -55.837280 35.921772
v 1023.932983 -55.837280 35.921772
v 1024.521851 -55.837280 24.305405
v 1024.521851 -43.656437 24.305405
v 1024.457642 -36.240013 10.440783
v 1024.457642 -43.030834 10.440783
v 1021.891602 -43.030834 10.440783
v 1021.891602 -36.240013 10.440783
v 1024.457642 -51.914005 10.440783
v 1021.891602 -51.914005 10.440783
v 1024.457642 -33.467419 9.021517
v 1021.891602 -33.467419 9.021517
v 1024.457642 -32.318985 5.583510
v 1021.891602 -32.318985 5.583510
v 1024.521851 -35.907608 11.827251
v 1024.521851 -36.317566 15.438660
v 1021.827515 -31.572060 6.454693
v 1021.827515 -32.841911 10.253400
v 1012.794922 -32.841911 10.253400
v 1012.794922 -31.572060 6.454693
v 1021.827515 -35.907608 11.827251
v 1012.794922 -35.907608 11.827251
v 1021.827515 -43.413528 11.827251
v 1012.794922 -43.413528 11.827251
v 1021.827515 -53.233868 11.827251
v 1012.794922 -53.233868 11.827251
v 1025.203491 -35.914894 11.780389
v 1025.203491 -43.413528 11.775723
v 1025.139160 -43.030834 10.393920
v 1025.139160 -36.247288 10.398655
v 1025.203613 -53.217171 11.803855
v 1025.139404 -51.897305 10.417386
v 1025.203125 -32.870415 10.220671
v 1025.138916 -33.495926 8.988719
v 1025.202515 -31.622713 6.440628
v 1025.138184 -32.369644 5.574110
v 1024.521851 -32.841911 10.253400
v 1024.521851 -31.572060 6.454693
v 1008.309937 -55.837280 0.000034
v 1023.932983 -55.837280 0.000034
v 1024.457642 -51.914005 0.000034
v 1025.139404 -51.897305 0.000034
v 1021.827515 -53.233868 0.000034
v 1021.891602 -51.914005 0.000034
v 1012.795105 -43.413528 0.000034
v 1012.795105 -53.233868 0.000034
v 1012.795105 -35.907608 0.000034
v 1012.794800 -31.572060 0.000034
v 1021.827332 -31.572060 0.000034
v 1025.202393 -31.622713 0.000034
v 1025.138184 -32.369644 0.000034
v 1024.521729 -31.572060 0.000034
v 1026.149902 -20.475925 24.305405
v 1025.950562 4.878812 24.305405
v 1025.950562 4.878812 35.921772
v 1025.944824 -20.475925 36.076290
v 1025.950562 37.032753 24.305405
v 1025.950562 54.255070 24.305405
v 1025.950562 54.255070 35.921772
v 1025.950562 37.032753 35.921772
v 1025.950562 30.665499 24.305405
v 1025.950562 30.665499 35.921772
v 1026.053589 -32.414612 24.305405
v 1025.950562 -27.016579 35.921772
v 1025.950562 -32.413685 35.921772
v 1025.950562 -55.837280 24.305405
v 1025.950562 -43.656437 24.305405
v 1025.950562 -43.656437 35.921772
v 1025.950562 -55.837280 35.921772
v 1024.521851 4.878832 35.921772
v 1024.516235 -20.720934 35.921772
v 1024.521851 54.255070 35.921772
v 1024.521851 37.032753 35.921772
v 1024.521851 30.665499 24.305405
v 1024.521851 30.665503 35.921772
v 1024.521851 -55.837280 35.921772
v 1024.521851 -43.656437 35.921772
v 1039.248169 -23.668121 35.921772
v 1045.209473 -23.723280 35.921772
v 1026.348999 -20.475925 15.599030
v 1039.182373 -20.475920 15.599032
v 1039.182373 -20.475920 24.305405
v 1045.209473 -20.475920 24.305405
v 1045.209473 -20.475920 15.599032
v 1039.182373 -20.475920 35.921772
v 1045.209473 -20.475920 36.076290
v 1029.547852 -20.475925 35.921772
v 1029.015625 -20.475924 24.305405
v 1029.479004 -27.016579 35.921772
v 1029.494507 -27.024456 24.305405
v 1039.248169 -27.041071 24.305405
v 1039.248169 -27.016579 35.921772
v 1029.509766 -27.032347 15.599032
v 1039.248169 -27.065596 15.599032
v 1024.521851 -55.837280 0.000034
v 1024.521851 -53.233868 0.000034
v 1026.261108 -27.022072 5.915206
v 1024.521851 -27.016567 5.915206
v 1008.309937 -27.016579 41.457836
v 1023.932983 -27.016579 41.457836
v 1023.927307 -23.612986 41.457836
v 1008.309937 -23.612986 41.457836
v 1045.209473 -20.475920 5.915206
v 1045.209473 -23.723280 5.915206
v 1039.248169 -23.668121 5.915206
v 1039.248169 -27.065596 5.915206
v 1025.944580 -20.476261 41.636230
v 1024.515747 -20.721104 41.457703
v 1024.515991 -23.612986 41.457836
v 1025.944702 -23.612986 41.457836
v 1024.521851 -27.016579 35.921772
v 1024.521851 -32.413685 35.921772
v 1024.521851 -27.016579 41.457836
v 1025.950562 -27.016579 41.457836
v 1026.348999 -20.475925 5.915205
v 1029.015625 -20.475924 15.599030
v 1029.015625 -20.475924 5.915205
v 1029.509766 -27.032347 5.915206
v 1023.927002 -20.721096 41.457710
v 1008.309937 -20.720934 41.457836
v 1029.548096 -20.476093 41.457905
v 1029.548096 -23.612986 41.457836
v 1045.209351 -20.476301 41.636230
v 1039.182373 -20.476109 41.457905
v 1039.248169 -23.668121 41.457901
v 1045.209473 -23.723280 41.457836
v 1029.479004 -27.016579 41.457836
v 1039.248169 -27.016579 41.457836
v 1025.203613 -53.217171 0.000034
v 1021.891602 -32.318985 0.000034
v 1024.457642 -32.318985 0.000034
v 1039.182373 -20.475920 5.915206
v 1024.521851 -20.475925 5.915205
v 1016.256592 -20.475925 5.806408
v 1008.309937 4.878812 -35.921844
v 1023.932983 4.878831 -35.921844
v 1023.927490 -20.720934 -35.921844
v 1008.309937 -20.720934 -35.921844
v 1024.521851 -27.016579 -24.305471
v 1026.103027 -27.017948 -24.347670
v 1026.260986 -27.022072 -15.885995
v 1024.521851 -27.016567 -15.599095
v 1045.209473 -23.723280 -24.347670
v 1045.209473 -23.723280 -15.886008
v 1039.248169 -23.668121 -15.885995
v 1039.248169 -23.668121 -24.347668
v 1024.521851 -20.475925 -24.305471
v 1024.521851 4.878812 -24.305471
v 1024.521851 4.878812 -15.312189
v 1024.521851 -20.475925 -15.312189
v 1016.256592 -20.475925 -15.312189
v 1016.256592 4.878812 -15.312189
v 1016.256592 39.917503 -4.777853
v 1024.521851 39.917503 -4.777852
v 1008.309937 54.255070 -35.921844
v 1023.932983 54.255077 -35.921844
v 1023.932983 37.032753 -35.921844
v 1008.309937 37.032753 -35.921844
v 1008.309937 30.686367 -35.921844
v 1023.932983 30.686371 -35.921844
v 1016.256592 29.103481 -15.312189
v 1024.521851 29.103481 -15.312189
v 1024.521851 35.170284 -12.225416
v 1016.256592 35.170284 -12.225415
v 1023.932983 -55.837280 -15.312189
v 1008.309937 -55.837280 -15.312189
v 1008.309937 -55.837280 -24.305473
v 1023.932983 -55.837280 -24.305471
v 1008.309937 -43.656437 -35.921844
v 1008.309937 -35.811695 -35.921844
v 1023.932983 -35.811695 -35.921844
v 1023.932983 -43.656437 -35.921844
v 1024.521851 -35.811691 -15.599092
v 1024.521851 -43.656437 -15.599091
v 1024.521851 -43.656437 -24.305471
v 1024.521851 -35.811695 -24.305471
v 1024.521851 -53.233868 -11.827320
v 1024.521851 -55.837280 -15.599091
v 1024.521851 -43.413528 -11.827320
v 1008.309937 -55.837280 -35.921844
v 1023.932983 -55.837280 -35.921844
v 1024.521851 -55.837280 -15.312189
v 1024.521851 -55.837280 -24.305471
v 1021.891602 -43.030834 -10.440783
v 1024.457642 -43.030834 -10.440783
v 1024.457642 -36.240013 -10.440783
v 1021.891602 -36.240013 -10.440783
v 1021.891602 -51.914005 -10.440783
v 1024.457642 -51.914005 -10.440783
v 1024.457642 -33.467419 -9.021585
v 1021.891602 -33.467419 -9.021585
v 1024.457642 -32.318985 -7.211176
v 1021.891602 -32.318985 -7.211176
v 1024.521851 -27.016567 -7.211206
v 1024.521851 -31.572060 -7.211185
v 1024.521851 -32.841911 -10.253469
v 1024.521851 -32.766239 -15.599093
v 1012.794922 -35.907608 -11.827320
v 1012.794922 -32.841911 -10.253469
v 1012.794922 -31.572060 -7.211185
v 1012.794922 -43.413528 -11.827320
v 1021.827515 -32.841911 -10.253469
v 1021.827515 -31.572060 -7.211185
v 1021.827515 -35.907608 -11.827320
v 1021.827515 -43.413528 -11.827320
v 1012.794922 -53.233868 -11.827320
v 1021.827515 -53.233868 -11.827320
v 1025.139160 -43.030834 -10.393989
v 1025.203491 -43.413528 -11.775723
v 1025.203491 -35.914894 -11.780526
v 1025.139160 -36.247288 -10.398655
v 1025.139404 -51.897305 -10.417454
v 1025.203613 -53.217171 -11.803855
v 1025.203125 -32.870415 -10.220672
v 1025.138916 -33.495926 -8.988650
v 1025.202515 -31.622713 -7.211185
v 1025.138184 -32.369644 -7.211175
v 1024.521851 -35.907608 -11.827320
v 1025.950562 4.878812 -35.921844
v 1025.950562 4.878812 -24.305471
v 1026.149902 -20.475925 -24.347670
v 1025.944824 -20.475925 -36.077938
v 1025.950562 54.255070 -35.921844
v 1025.950562 54.255070 -24.305471
v 1025.950562 37.032753 -24.305471
v 1025.950562 37.032753 -35.921844
v 1025.950562 30.686367 -35.921844
v 1025.950562 30.686367 -24.305471
v 1025.950562 -43.656437 -35.921844
v 1025.950562 -35.811695 -35.921844
v 1026.022461 -35.812347 -24.325365
v 1025.950562 -43.656437 -24.305471
v 1025.950562 -55.837280 -24.305471
v 1025.950562 -55.837280 -35.921844
v 1024.516235 -20.720934 -35.921844
v 1024.521851 4.878832 -35.921844
v 1024.521851 54.255070 -24.305471
v 1024.521851 37.032753 -24.305471
v 1024.521851 37.032753 -35.921844
v 1024.521851 54.255070 -35.921844
v 1024.521851 30.686367 -24.305471
v 1024.521851 30.686371 -35.921844
v 1024.521851 -55.837280 -35.921844
v 1024.521851 -43.656437 -35.921844
v 1039.248169 -23.668121 -35.921844
v 1045.209473 -23.723280 -35.921844
v 1026.348999 -20.475925 -15.312189
v 1045.209473 -20.475920 -24.347670
v 1039.182373 -20.475920 -24.347670
v 1039.182373 -20.475920 -15.885995
v 1045.209473 -20.475920 -15.885995
v 1045.209473 -20.475920 -36.077938
v 1039.182373 -20.475920 -35.921844
v 1029.015625 -20.475924 -24.347668
v 1029.015625 -20.475924 -15.312189
v 1032.222778 -20.475920 -15.885995
v 1029.547852 -20.475925 -35.921837
v 1039.248169 -27.041071 -24.347668
v 1029.494507 -27.024456 -24.347670
v 1029.479004 -27.016579 -35.921844
v 1039.248169 -27.016579 -35.921837
v 1039.248169 -27.065596 -15.885995
v 1029.509766 -27.032347 -15.885995
v 1024.521851 -27.016567 0.000034
v 1026.261108 -27.022072 -7.211209
v 1026.261230 -27.022072 0.000034
v 1008.309937 -23.723282 -41.457905
v 1023.927307 -23.723282 -41.458038
v 1023.932983 -27.016579 -41.457905
v 1008.309937 -27.016579 -41.457905
v 1045.209473 -23.723280 0.000034
v 1045.209473 -23.723280 -7.211209
v 1045.209473 -20.475920 -7.211209
v 1045.209473 -20.475920 0.000034
v 1039.248169 -27.065596 0.000034
v 1039.248169 -27.065596 -7.211209
v 1039.248169 -23.668121 -7.211209
v 1039.248169 -23.668121 0.000034
v 1024.515991 -23.723282 -41.458042
v 1024.515747 -20.598598 -41.458042
v 1025.944580 -20.598598 -41.637943
v 1025.944702 -23.723282 -41.457905
v 1025.950562 -27.016579 -35.921844
v 1024.521851 -35.811695 -35.921844
v 1025.950562 -27.016579 -41.457905
v 1024.521851 -27.016579 -41.457905
v 1029.015625 -20.475924 0.000034
v 1029.015625 -20.475924 -7.211200
v 1026.348999 -20.475925 -7.211200
v 1026.348999 -20.475925 0.000034
v 1029.509766 -27.032347 -7.211209
v 1029.509766 -27.032347 0.000034
v 1008.309937 -20.598598 -41.457905
v 1023.927002 -20.598598 -41.458038
v 1029.548096 -20.598598 -41.457905
v 1029.548096 -23.723282 -41.457905
v 1039.248169 -23.668127 -41.457901
v 1039.182373 -20.598598 -41.457901
v 1045.209351 -20.598598 -41.637878
v 1045.209473 -23.723282 -41.457901
v 1039.248169 -27.016579 -41.457901
v 1029.479004 -27.016579 -41.457905
v 1039.182373 -20.475920 0.000034
v 1039.182373 -20.475920 -7.211209
v 1024.521851 -20.475925 0.000034
v 1024.521851 -20.475924 -7.211200
v 1016.256592 -20.475925 0.000034
v 1016.256592 -20.475924 -7.211200
v 1008.309937 -23.612986 35.921772
v 1023.932983 -27.016579 -35.921844
v 1008.309937 -27.016579 -35.921844
v 1008.309937 -23.723282 -35.921844
v 1024.521851 -27.016579 -35.921844
v 1024.521851 54.255070 0.353374
v 1024.521851 54.255070 -13.747643
v 1023.932983 -36.317570 35.921772
v 1008.309937 -36.317570 35.921768
v 1024.521851 -36.317570 35.921768
v 1025.950562 -36.317570 35.921768
v 1026.017822 -36.318172 24.305405
v 1024.521851 -36.317570 24.305405
v 1008.309937 -32.766243 -35.921844
v 1023.932983 -32.766243 -35.921844
v 1024.521851 -32.766243 -35.921844
v 1025.950562 -32.766243 -35.921844
v 1026.050293 -32.767143 -24.333090
v 1024.521851 -32.766243 -24.305471

# UV coordinates
vt 0.064850 0.728785
vt 0.113276 0.728495
vt 0.113835 0.810846
vt 0.065337 0.805011
vt 0.599887 0.148540
vt 0.639938 0.139835
vt 0.641581 0.146826
vt 0.601686 0.156231
vt 0.582572 0.073933
vt 0.581889 0.047238
vt 0.617201 0.039383
vt 0.622408 0.064986
vt 0.188478 0.804747
vt 0.160572 0.804681
vt 0.161055 0.729214
vt 0.188939 0.729355
vt 0.787288 0.792971
vt 0.820886 0.667926
vt 0.860192 0.655773
vt 0.830231 0.808275
vt 0.657005 0.947247
vt 0.652166 0.987332
vt 0.617967 0.979915
vt 0.634131 0.938278
vt 0.065653 0.907819
vt 0.114091 0.907672
vt 0.114222 0.961088
vt 0.065784 0.961225
vt 0.065591 0.887460
vt 0.114040 0.888498
vt 0.760094 0.954532
vt 0.727993 0.920249
vt 0.198235 0.901722
vt 0.221366 0.916392
vt 0.185268 0.960929
vt 0.160914 0.960982
vt 0.160786 0.907570
vt 0.700629 0.941485
vt 0.715117 0.981863
vt 0.845728 0.675413
vt 0.845250 0.634568
vt 0.916204 0.633738
vt 0.916682 0.674582
vt 0.148740 0.555581
vt 0.078613 0.533708
vt 0.086256 0.512424
vt 0.155683 0.531500
vt 0.217337 0.571758
vt 0.223100 0.547847
vt 0.263781 0.555741
vt 0.258562 0.580257
vt 0.274651 0.504671
vt 0.285705 0.450314
vt 0.298948 0.465386
vt 0.289695 0.509573
vt 0.170147 0.481335
vt 0.102178 0.468086
vt 0.107193 0.415809
vt 0.176919 0.426654
vt 0.245264 0.441890
vt 0.285704 0.450308
vt 0.235104 0.498039
vt 0.252114 0.094269
vt 0.254263 0.063536
vt 0.265896 0.064338
vt 0.263737 0.095154
vt 0.257030 0.023284
vt 0.268658 0.024083
vt 0.250977 0.108300
vt 0.262568 0.109339
vt 0.249372 0.124653
vt 0.260972 0.125764
vt 0.282634 0.543089
vt 0.267555 0.538007
vt 0.718236 0.442749
vt 0.705218 0.453041
vt 0.678269 0.432501
vt 0.696920 0.413937
vt 0.700606 0.466433
vt 0.667659 0.453634
vt 0.705765 0.498820
vt 0.666373 0.505241
vt 0.721861 0.536742
vt 0.698889 0.563236
vt 0.727697 0.143890
vt 0.722657 0.109720
vt 0.729321 0.110982
vt 0.733714 0.141372
vt 0.764439 0.212564
vt 0.765285 0.178482
vt 0.771549 0.180150
vt 0.770784 0.210983
vt 0.718193 0.066065
vt 0.724905 0.071063
vt 0.763339 0.257160
vt 0.769788 0.251318
vt 0.736680 0.155998
vt 0.741814 0.152591
vt 0.772778 0.164737
vt 0.778306 0.167722
vt 0.754138 0.159750
vt 0.757890 0.155890
vt 0.790172 0.159393
vt 0.794045 0.162894
vt 0.724836 0.144980
vt 0.719475 0.109932
vt 0.249019 0.094048
vt 0.251167 0.063324
vt 0.715910 0.064184
vt 0.253934 0.023148
vt 0.734949 0.158523
vt 0.247890 0.108052
vt 0.753862 0.162867
vt 0.246290 0.124311
vt 0.844435 0.565026
vt 0.915390 0.564195
vt 0.298455 0.071090
vt 0.300926 0.118447
vt 0.297827 0.118502
vt 0.295362 0.071251
vt 0.817047 0.258497
vt 0.817195 0.252497
vt 0.473068 0.240480
vt 0.419356 0.241320
vt 0.418659 0.196721
vt 0.472371 0.195882
vt 0.419888 0.275407
vt 0.473601 0.274568
vt 0.733631 0.392958
vt 0.744719 0.434748
vt 0.784324 0.156363
vt 0.783811 0.152918
vt 0.784788 0.159483
vt 0.156013 0.729187
vt 0.156138 0.804673
vt 0.120070 0.804753
vt 0.119557 0.729214
vt 0.156357 0.907578
vt 0.156485 0.960992
vt 0.120476 0.961071
vt 0.120346 0.907653
vt 0.156313 0.887201
vt 0.120292 0.887277
vt 0.216199 0.546252
vt 0.210116 0.570163
vt 0.157747 0.557895
vt 0.164568 0.533798
vt 0.239039 0.440333
vt 0.228870 0.496444
vt 0.178777 0.483602
vt 0.186243 0.428400
vt 0.917300 0.727340
vt 0.846346 0.728171
vt 0.115663 0.811066
vt 0.115101 0.728484
vt 0.116048 0.961082
vt 0.115917 0.907666
vt 0.224796 0.023120
vt 0.232176 0.075362
vt 0.225750 0.076270
vt 0.218370 0.024028
vt 0.160743 0.887196
vt 0.115867 0.888537
vt 0.919975 0.727308
vt 0.919357 0.674551
vt 0.925846 0.674475
vt 0.926463 0.727232
vt 0.172709 0.481834
vt 0.179547 0.427063
vt 0.674062 0.054170
vt 0.668473 0.028548
vt 0.876702 0.142627
vt 0.877078 0.101781
vt 0.884472 0.101849
vt 0.885001 0.142703
vt 0.943550 0.143242
vt 0.943926 0.102396
vt 0.971037 0.102646
vt 0.970661 0.143491
vt 0.944877 0.049642
vt 0.971529 0.049185
vt 0.900390 0.049232
vt 0.897488 0.101969
vt 0.687607 0.112399
vt 0.636376 0.124859
vt 0.625875 0.081100
vt 0.677629 0.070513
vt 0.596520 0.134174
vt 0.586271 0.090207
vt 0.354063 0.464878
vt 0.351640 0.476485
vt 0.557786 0.158277
vt 0.559573 0.165972
vt 0.058644 0.276912
vt 0.110924 0.293785
vt 0.107525 0.304264
vt 0.055683 0.286088
vt 0.234234 0.353480
vt 0.194107 0.343326
vt 0.197150 0.333517
vt 0.236463 0.343465
vt 0.263496 0.350306
vt 0.264892 0.361238
vt 0.297297 0.369438
vt 0.298329 0.359120
vt 0.540509 0.083634
vt 0.544247 0.099910
vt 0.110617 0.317872
vt 0.106075 0.315482
vt 0.109479 0.304950
vt 0.114263 0.306494
vt 0.691347 0.127996
vt 0.151384 0.556406
vt 0.158301 0.532219
vt 0.112895 0.294421
vt 0.117675 0.295961
vt 0.884033 0.048380
vt 0.884604 0.185876
vt 0.897112 0.142815
vt 0.896715 0.185988
vt 0.554446 0.143902
vt 0.104105 0.314846
vt 0.051845 0.297980
vt 0.122698 0.321732
vt 0.126193 0.310802
vt 0.175154 0.338528
vt 0.155498 0.332235
vt 0.158970 0.322579
vt 0.178278 0.328740
vt 0.129482 0.299754
vt 0.161093 0.309878
vt 0.769182 0.054621
vt 0.769651 0.057773
vt 0.770562 0.063890
vt 0.310094 0.070482
vt 0.312565 0.117839
vt 0.769835 0.529689
vt 0.781681 0.574918
vt 0.427253 0.289218
vt 0.473908 0.294257
vt 0.444595 0.294715
vt 0.819479 0.160116
vt 0.819395 0.163521
vt 0.022756 0.023128
vt 0.048116 0.023163
vt 0.048100 0.034818
vt 0.022740 0.034783
vt 0.048095 0.037918
vt 0.022778 0.037883
vt 0.536588 0.057663
vt 0.970264 0.186664
vt 0.943153 0.186415
vt 0.876305 0.185800
vt 0.778150 0.647076
vt 0.804524 0.612899
vt 0.406545 0.804268
vt 0.358074 0.810314
vt 0.358276 0.727960
vt 0.406703 0.728040
vt 0.426021 0.196640
vt 0.424430 0.189637
vt 0.464244 0.179887
vt 0.466002 0.187588
vt 0.400804 0.089389
vt 0.435977 0.080958
vt 0.447075 0.105247
vt 0.407356 0.114684
vt 0.310495 0.728889
vt 0.311309 0.804353
vt 0.283404 0.804541
vt 0.282612 0.729152
vt 0.657735 0.577235
vt 0.678564 0.612715
vt 0.619047 0.727700
vt 0.577018 0.710040
vt 0.587720 0.962320
vt 0.611191 0.929465
vt 0.406779 0.960482
vt 0.358341 0.960555
vt 0.358239 0.907139
vt 0.406677 0.907076
vt 0.406651 0.886784
vt 0.358207 0.888028
vt 0.530165 0.865320
vt 0.576988 0.861657
vt 0.582869 0.895790
vt 0.544938 0.915830
vt 0.914576 0.494652
vt 0.843621 0.495483
vt 0.843143 0.454639
vt 0.914097 0.453808
vt 0.583425 0.569237
vt 0.581124 0.602026
vt 0.511013 0.590061
vt 0.515882 0.553960
vt 0.403437 0.568878
vt 0.410827 0.533207
vt 0.449701 0.543060
vt 0.443372 0.578247
vt 0.404379 0.487472
vt 0.422582 0.478992
vt 0.395079 0.531647
vt 0.599910 0.519378
vt 0.531729 0.501190
vt 0.422586 0.478990
vt 0.463017 0.487570
vt 0.271849 0.064169
vt 0.283492 0.063522
vt 0.285231 0.094281
vt 0.273596 0.095011
vt 0.269626 0.023880
vt 0.281263 0.023237
vt 0.286180 0.108326
vt 0.274576 0.109210
vt 0.287567 0.124699
vt 0.275952 0.125655
vt 0.364994 0.602135
vt 0.360024 0.579521
vt 0.378120 0.577382
vt 0.400569 0.582727
vt 0.395152 0.608872
vt 0.527314 0.273728
vt 0.520384 0.287763
vt 0.503222 0.293799
vt 0.526781 0.239641
vt 0.801306 0.399942
vt 0.788100 0.431146
vt 0.771695 0.428623
vt 0.775909 0.393039
vt 0.820991 0.413040
vt 0.798752 0.440495
vt 0.847703 0.457298
vt 0.810327 0.471211
vt 0.848080 0.523942
vt 0.815063 0.512160
vt 0.823729 0.096932
vt 0.829736 0.093784
vt 0.834866 0.127941
vt 0.828376 0.127284
vt 0.866361 0.182494
vt 0.872701 0.181138
vt 0.871862 0.215220
vt 0.865602 0.213327
vt 0.816329 0.057457
vt 0.821295 0.050721
vt 0.870756 0.259816
vt 0.864604 0.253662
vt 0.829797 0.142140
vt 0.823893 0.140376
vt 0.860228 0.169748
vt 0.865896 0.167039
vt 0.814188 0.150813
vt 0.809475 0.148214
vt 0.844746 0.164148
vt 0.848787 0.160843
vt 0.832843 0.093060
vt 0.837920 0.128151
vt 0.288328 0.094101
vt 0.286591 0.063351
vt 0.822931 0.048256
vt 0.284361 0.023142
vt 0.832188 0.144051
vt 0.289270 0.108119
vt 0.815360 0.153715
vt 0.290653 0.124397
vt 0.292896 0.023999
vt 0.295984 0.023732
vt 0.526084 0.195043
vt 0.351812 0.804247
vt 0.315744 0.804325
vt 0.315538 0.728840
vt 0.351997 0.728707
vt 0.352087 0.960567
vt 0.316078 0.960644
vt 0.315974 0.907231
vt 0.351984 0.907148
vt 0.351950 0.886838
vt 0.315928 0.886920
vt 0.507070 0.552554
vt 0.502030 0.588605
vt 0.450145 0.579487
vt 0.456049 0.544112
vt 0.469347 0.488656
vt 0.522491 0.499028
vt 0.842525 0.401881
vt 0.913480 0.401050
vt 0.356451 0.727957
vt 0.356246 0.810542
vt 0.311649 0.960653
vt 0.311545 0.907242
vt 0.356413 0.907142
vt 0.356515 0.960558
vt 0.204397 0.024028
vt 0.210822 0.023120
vt 0.218202 0.075362
vt 0.211777 0.076270
vt 0.311498 0.886934
vt 0.356380 0.888075
vt 0.923261 0.453701
vt 0.916772 0.453777
vt 0.916155 0.401019
vt 0.922643 0.400943
vt 0.529158 0.500505
vt 0.513336 0.553384
vt 0.356201 0.127612
vt 0.349981 0.102131
vt 0.882441 0.322629
vt 0.875047 0.322561
vt 0.875423 0.281716
vt 0.883721 0.281792
vt 0.969006 0.323426
vt 0.941895 0.323176
vt 0.942270 0.282331
vt 0.969381 0.282580
vt 0.968514 0.376894
vt 0.941875 0.375940
vt 0.895456 0.322749
vt 0.895832 0.281904
vt 0.910399 0.282038
vt 0.897388 0.375530
vt 0.411307 0.130686
vt 0.421061 0.174617
vt 0.369546 0.185884
vt 0.360153 0.143874
vt 0.450890 0.121494
vt 0.460967 0.165500
vt 0.533849 0.171922
vt 0.496060 0.180647
vt 0.494292 0.172948
vt 0.532070 0.164225
vt 0.589075 0.420985
vt 0.534822 0.412348
vt 0.536809 0.401512
vt 0.590828 0.411504
vt 0.442063 0.395492
vt 0.440080 0.405569
vt 0.399948 0.395413
vt 0.402751 0.385544
vt 0.369290 0.387655
vt 0.375718 0.378703
vt 0.319606 0.364504
vt 0.350859 0.372413
vt 0.346165 0.381804
vt 0.317091 0.374446
vt 0.518577 0.105837
vt 0.480877 0.114558
vt 0.477085 0.098297
vt 0.514816 0.089560
vt 0.532776 0.412022
vt 0.530768 0.422907
vt 0.525635 0.422853
vt 0.527833 0.411108
vt 0.373022 0.201540
vt 0.508370 0.589610
vt 0.529836 0.400219
vt 0.534773 0.401135
vt 0.881018 0.376089
vt 0.896472 0.212359
vt 0.896138 0.248699
vt 0.884027 0.248588
vt 0.884361 0.212247
vt 0.490995 0.158565
vt 0.528747 0.149844
vt 0.586802 0.433272
vt 0.532804 0.423284
vt 0.513171 0.420509
vt 0.515289 0.409231
vt 0.480853 0.404019
vt 0.479320 0.414166
vt 0.459034 0.410363
vt 0.460936 0.400266
vt 0.485019 0.391836
vt 0.517644 0.397947
vt 0.307623 0.023125
vt 0.073476 0.023199
vt 0.073460 0.034854
vt 0.073413 0.037953
vt 0.508916 0.064031
vt 0.468290 0.073459
vt 0.942910 0.212786
vt 0.970021 0.213036
vt 0.969665 0.251771
vt 0.942554 0.251521
vt 0.876063 0.212171
vt 0.875728 0.248512
vt 0.770521 0.586710
vt 0.752046 0.634340
vt 0.713648 0.623039
vt 0.711585 0.581759
vt 0.074180 0.039267
vt 0.099321 0.039678
vt 0.099117 0.052130
vt 0.073976 0.051719
vt 0.734396 0.200097
vt 0.709938 0.205935
vt 0.693467 0.136912
vt 0.717916 0.131077
vt 0.884264 0.023128
vt 0.877443 0.049021
vt 0.877672 0.023878
vt 0.717295 0.128475
vt 0.692846 0.134310
vt 0.715781 0.122165
vt 0.074444 0.023128
vt 0.099585 0.023539
vt 0.804069 0.023200
vt 0.874998 0.023854
vt 0.874769 0.048997
vt 0.803838 0.048344
vt 0.900622 0.024088
vt 0.698612 0.048713
vt 0.693008 0.023144
vt 0.971760 0.023933
vt 0.945108 0.024498
vt 0.702208 0.064916
vt 0.712037 0.106591
vt 0.365976 0.285220
vt 0.350488 0.215971
vt 0.375024 0.210483
vt 0.390514 0.279732
vt 0.127119 0.051722
vt 0.101975 0.051768
vt 0.101952 0.039314
vt 0.127097 0.039269
vt 0.874208 0.400464
vt 0.874441 0.375319
vt 0.880784 0.401341
vt 0.348491 0.207027
vt 0.374440 0.207872
vt 0.349905 0.213360
vt 0.800604 0.399786
vt 0.800836 0.374643
vt 0.871767 0.375295
vt 0.871534 0.400439
vt 0.101923 0.023173
vt 0.127068 0.023128
vt 0.897158 0.400674
vt 0.941643 0.401083
vt 0.968281 0.402146
vt 0.325596 0.108037
vt 0.331766 0.133450
vt 0.335620 0.149566
vt 0.345004 0.191386
vt 0.917250 0.494621
vt 0.918065 0.564164
vt 0.918879 0.633706
vt 0.283610 0.882731
vt 0.274070 0.901556
vt 0.188613 0.882938
vt 0.236188 0.917764
vt 0.214793 0.960865
vt 0.240656 0.960808
vt 0.251003 0.916328
vt 0.160705 0.514081
vt 0.091784 0.497028
vt 0.163304 0.514723
vt 0.169502 0.516368
vt 0.220599 0.528957
vt 0.227268 0.530552
vt 0.327077 0.593666
vt 0.301096 0.588581
vt 0.302555 0.567487
vt 0.331296 0.573476
vt 0.286837 0.558267
vt 0.580231 0.614755
vt 0.578544 0.638787
vt 0.505553 0.630537
vt 0.509122 0.604077
vt 0.502801 0.630226
vt 0.506441 0.603674
vt 0.496379 0.629023
vt 0.500073 0.602600
vt 0.443525 0.619147
vt 0.447853 0.593220
vt 0.436277 0.617697
vt 0.440916 0.591907
vt 0.388069 0.565171

# vertex normals
vn -0.019900 0.107461 0.994010
vn 0.000002 0.385137 0.922859
vn 0.000000 0.000000 1.000000
vn -0.002932 -0.999996 0.000132
vn 0.484784 -0.865851 -0.123640
vn 0.952644 -0.291661 -0.086037
vn 0.897033 -0.441963 -0.000000
vn 0.378310 -0.925679 0.000000
vn 0.634553 -0.772879 0.000000
vn 0.355056 -0.934845 0.000000
vn 0.659618 -0.751601 0.000000
vn 0.741522 -0.001941 -0.670926
vn 0.972615 0.000000 -0.232423
vn 0.984936 0.031109 -0.170100
vn 0.614860 0.550114 -0.565086
vn 0.017074 0.178839 -0.983730
vn -0.000000 0.000000 -1.000000
vn 0.902247 -0.396814 -0.168786
vn 0.000000 -0.920214 -0.391416
vn -0.000000 -1.000000 0.000000
vn 0.973293 -0.229567 0.000000
vn -0.000000 -0.101375 -0.994848
vn 0.815153 -0.058721 -0.576261
vn 0.958033 -0.180009 -0.223090
vn 1.000000 0.000000 0.000000
vn 0.993403 0.092122 -0.068290
vn 0.985964 0.000000 -0.166955
vn -0.000000 -0.756168 -0.654378
vn 0.000000 -1.000000 0.000000
vn 0.000000 -0.722399 0.691476
vn -0.297829 -0.683542 0.666385
vn -0.000000 -0.000000 1.000000
vn 0.000000 -0.000000 1.000000
vn 0.981401 0.000000 -0.191967
vn 0.997229 -0.074393 0.000000
vn 0.993119 -0.108144 0.044941
vn 0.978649 0.000213 0.205539
vn -0.000000 0.000000 1.000000
vn 0.000000 0.000000 1.000000
vn 0.000000 -0.430404 0.902637
vn 0.000000 -0.874960 0.484195
vn 0.976197 -0.151620 -0.155083
vn 0.987205 0.000000 -0.159458
vn -0.010729 -0.109926 -0.993882
vn -0.013026 0.000041 -0.999915
vn -0.512144 0.000000 -0.858900
vn -0.583801 -0.178366 -0.792062
vn -0.011395 0.866852 -0.498435
vn -0.610547 0.413090 -0.675714
vn -0.015040 -0.725550 -0.688005
vn -0.443734 -0.761595 -0.472306
vn -0.017677 -0.987394 -0.157293
vn -0.290821 -0.953655 -0.077239
vn 0.978673 0.017772 0.204653
vn -0.068765 -0.990098 -0.122384
vn -0.131737 -0.679722 -0.721542
vn 0.675371 -0.629249 -0.384603
vn 0.087493 -0.988612 -0.122438
vn -0.117427 -0.086835 -0.989278
vn 0.860794 -0.114467 -0.495915
vn -0.134285 0.000000 -0.990943
vn 0.674502 0.000000 -0.738273
vn -0.175889 0.907840 -0.380644
vn 0.746449 0.343286 -0.570061
vn 0.948233 0.076771 0.308156
vn 0.926185 0.000334 0.377069
vn 0.862488 -0.000371 -0.506078
vn 0.826998 -0.053801 -0.559625
vn 0.950288 -0.143207 0.276487
vn 0.920590 0.351083 -0.171039
vn 0.894891 0.386741 0.222715
vn 0.855782 -0.363677 -0.367934
vn 0.780361 0.623955 0.041436
vn 0.778643 -0.618426 -0.106136
vn 0.994629 0.070858 0.075442
vn 0.991429 0.128593 0.023068
vn -0.008493 0.999964 0.000000
vn 0.959774 0.280772 0.000000
vn -0.262009 0.965065 0.000000
vn -0.246189 0.969222 0.000000
vn 1.000000 0.000000 -0.000000
vn 0.477603 0.878575 0.000000
vn 1.000000 0.000019 0.000000
vn 0.321830 -0.946797 0.000001
vn -0.081833 -0.996646 -0.000000
vn 0.937397 0.348263 -0.000000
vn 0.412473 -0.910970 0.000000
vn 0.981937 0.189209 0.000000
vn 0.974049 0.218439 -0.059265
vn 0.991909 0.002570 -0.126921
vn 0.991782 0.002779 0.127909
vn 0.926046 0.285874 0.246405
vn 0.995950 0.000000 -0.089913
vn 0.967918 0.080296 -0.238091
vn 0.994711 0.082518 0.061170
vn 0.986251 0.000000 0.165254
vn 0.983316 0.000000 -0.181907
vn 0.996674 0.000000 0.081497
vn 0.994285 -0.005764 -0.106601
vn 0.731890 -0.679338 0.053275
vn 0.989666 -0.002681 0.143365
vn 0.991344 -0.116276 -0.060963
vn 0.989846 -0.002479 -0.142124
vn 0.994614 0.000000 0.103644
vn 0.964816 -0.113165 0.237328
vn -0.025517 0.001430 0.999673
vn -0.120309 0.344572 0.931019
vn 0.000000 0.232284 0.972648
vn 0.994161 0.000000 -0.107912
vn 0.000000 -0.885654 0.464345
vn 0.000000 0.000000 1.000000
vn 0.398919 -0.916986 0.000000
vn 0.565542 -0.824719 0.000000
vn -0.000000 1.000000 -0.000000
vn -0.000000 1.000000 0.000000
vn -0.000000 1.000000 0.000000
vn 0.389350 0.921090 0.000000
vn 0.462506 0.886616 0.000000
vn 0.000002 1.000000 0.000014
vn 0.579397 0.815045 0.000021
vn -0.000000 1.000000 0.000009
vn -0.000001 1.000000 0.000000
vn -0.000535 -0.999999 0.000952
vn -0.001525 -0.999999 0.000686
vn 0.238794 -0.971069 0.001546
vn 0.399585 -0.916696 0.000990
vn -0.002957 -0.999995 0.000791
vn 0.467719 -0.883876 0.001179
vn 0.950657 -0.310242 0.000000
vn 0.987693 -0.156403 0.000000
vn -0.003163 -0.999995 -0.000000
vn 0.959926 -0.280255 -0.000000
vn -0.092402 -0.848277 0.521429
vn 0.000000 -0.843369 0.537335
vn 0.000000 0.000013 1.000000
vn -0.350486 0.000013 0.936568
vn 0.534956 0.844880 0.000000
vn 0.413609 -0.910455 0.000000
vn 0.551134 -0.834417 0.000000
vn 0.281582 -0.959537 0.000000
vn -0.066306 0.867144 0.493624
vn -0.114225 0.880549 0.459985
vn -0.021463 -0.010586 0.999714
vn 0.012648 -0.020303 0.999714
vn 0.000000 -0.456354 0.889798
vn -0.000000 -0.000000 1.000000
vn 0.000000 -0.955857 0.293832
vn 0.000000 -0.810092 0.586303
vn -0.000000 1.000000 0.000000
vn -0.000001 1.000000 0.000000
vn -0.000001 1.000000 0.000000
vn -0.003343 -0.999994 -0.000000
vn 0.000010 0.698032 0.716066
vn -0.176357 0.952371 0.248773
vn 0.005237 0.868737 0.495246
vn -0.000003 -0.000007 1.000000
vn 0.223288 0.840779 0.493186
vn -0.003520 0.867149 0.498037
vn 0.114132 -0.441334 0.890055
vn 0.673676 -0.642540 0.365108
vn -0.000001 -0.854170 0.519994
vn 0.505950 -0.738062 0.446407
vn 0.720985 -0.692950 0.000000
vn -0.496757 -0.867889 -0.000000
vn -0.008715 -0.999962 0.000000
vn -0.000000 1.000000 0.000000
vn 0.000000 1.000000 0.000000
vn 0.000000 0.000000 -1.000000
vn 0.000000 0.212302 -0.977204
vn -0.083016 0.211605 -0.973823
vn 0.859041 -0.487770 0.155336
vn 0.516085 -0.846437 0.131148
vn -0.002923 -0.999996 -0.000142
vn 0.957191 -0.289456 0.000000
vn 0.353702 -0.935358 0.000000
vn 0.472066 -0.881563 0.000000
vn 0.488144 -0.872763 0.000000
vn 0.661065 -0.750329 0.000000
vn 0.985442 0.031434 0.167081
vn 0.994238 0.000000 0.107194
vn 0.635124 0.000000 0.772410
vn 0.680676 0.381233 0.625573
vn 0.000000 0.304349 0.952561
vn -0.000000 -0.920215 0.391414
vn 0.898548 -0.403859 0.171782
vn 0.000000 -0.101377 0.994848
vn 0.896555 -0.044903 0.440651
vn 0.756418 -0.410744 0.509040
vn 0.000000 -0.756169 0.654376
vn 0.996651 0.000000 0.081775
vn 0.975263 0.000228 0.221048
vn 0.988715 -0.138337 -0.057488
vn 0.963409 0.000278 -0.268034
vn 0.000000 -0.690140 -0.723676
vn 0.964299 -0.264816 0.000000
vn 0.920138 -0.249296 0.301988
vn -0.512163 0.000000 0.858888
vn -0.013012 0.000041 0.999915
vn -0.010737 -0.109923 0.993882
vn -0.583821 -0.178355 0.792050
vn -0.610554 0.413089 0.675708
vn -0.011377 0.866854 0.498433
vn -0.012112 -0.596926 0.802205
vn -0.524323 -0.597236 0.606955
vn -0.020861 -0.985337 0.169338
vn -0.233288 -0.969819 0.070905
vn 0.985764 -0.168134 0.000003
vn 0.981683 0.187181 -0.035527
vn 0.996060 0.056911 -0.068012
vn 0.860796 -0.114466 0.495910
vn 0.564376 -0.666149 0.487570
vn 0.498139 -0.860523 0.106578
vn 0.674506 0.000000 0.738269
vn -0.108615 -0.638537 0.761888
vn -0.069306 -0.990069 0.122310
vn -0.117431 -0.086835 0.989277
vn -0.134291 0.000000 0.990942
vn 0.746451 0.343287 0.570056
vn -0.175894 0.907841 0.380640
vn 0.862499 -0.000372 0.506059
vn 0.926181 0.000332 -0.377078
vn 0.948235 0.076769 -0.308151
vn 0.827029 -0.053801 0.559578
vn 0.920587 0.351090 0.171040
vn 0.950289 -0.143205 -0.276482
vn 0.910135 0.340270 -0.236369
vn 0.821890 -0.335059 0.460687
vn 0.703912 0.708895 -0.044448
vn 0.803971 -0.583863 0.112846
vn 0.984971 0.014941 -0.172074
vn 0.995359 0.002091 -0.096207
vn 0.969210 0.003671 0.246208
vn 0.973461 0.221057 0.059225
vn 0.934950 0.250661 -0.251075
vn 0.994711 0.082518 -0.061170
vn 0.967918 0.080296 0.238091
vn 0.995957 0.000000 0.089834
vn 0.981734 0.000000 -0.190258
vn 0.992521 0.000000 -0.122071
vn 0.998114 0.000000 0.061380
vn 0.998037 -0.001792 -0.062607
vn 0.985463 -0.001972 -0.169878
vn 0.995705 -0.005118 0.092444
vn 0.970537 -0.003364 0.240930
vn 0.991344 -0.116276 0.060963
vn 0.964816 -0.113165 -0.237328
vn -0.100886 0.211282 -0.972205
vn -0.025770 0.001444 -0.999667
vn 0.975141 0.178011 0.131958
vn 0.995822 0.000000 0.091312
vn 0.000000 0.232284 -0.972648
vn 0.970250 0.000000 0.242104
vn 0.000000 -0.827956 -0.560793
vn 0.262102 -0.965040 0.000000
vn 0.733602 -0.679579 -0.000003
vn -0.000000 1.000000 0.000000
vn 0.391500 0.920178 0.000000
vn -0.000000 1.000000 -0.000000
vn -0.000000 1.000000 0.000000
vn 0.626991 0.779026 0.000000
vn 0.377718 0.925867 -0.009955
vn -0.000049 0.999969 -0.007916
vn -0.000001 1.000000 -0.000000
vn -0.000001 1.000000 0.000000
vn -0.000000 1.000000 0.000000
vn 0.000103 0.999987 -0.005192
vn 0.237832 -0.971305 -0.001569
vn -0.001523 -0.999999 -0.000695
vn -0.000487 -1.000000 -0.000871
vn 0.566367 -0.824152 -0.001180
vn 0.326524 -0.945188 -0.000898
vn -0.002821 -0.999996 -0.001060
vn 0.929409 -0.369050 -0.000006
vn -0.003164 -0.999995 0.000000
vn -0.003163 -0.999995 0.000000
vn -0.251758 -0.000010 -0.967790
vn -0.000009 -0.000021 -1.000000
vn -0.000003 -0.643496 -0.765449
vn -0.198047 -0.939513 -0.279449
vn 0.381528 -0.924358 0.000000
vn 0.472066 -0.881563 0.000000
vn 0.474326 0.880349 0.000000
vn 0.615811 0.787894 0.000000
vn 0.257831 -0.966190 0.000000
vn 0.326524 -0.945189 0.000000
vn 0.489047 -0.872257 0.000000
vn 0.632918 -0.774219 0.000000
vn -0.021668 -0.009945 -0.999716
vn -0.082525 0.960825 -0.264583
vn 0.000388 0.911276 -0.411796
vn 0.012932 -0.020794 -0.999700
vn 0.720643 -0.691316 -0.052498
vn 0.000009 -0.732070 -0.681230
vn 0.000000 -0.908328 -0.418260
vn -0.000001 1.000000 0.000000
vn -0.000001 1.000000 0.000000
vn -0.000000 1.000000 0.000000
vn -0.000000 1.000000 0.000000
vn -0.003351 -0.999994 0.000000
vn -0.003332 -0.999994 -0.000000
vn -0.096368 0.963293 -0.250559
vn -0.000006 0.670424 -0.741979
vn 0.004248 0.915305 -0.402739
vn 0.000000 -0.000000 -1.000000
vn 0.257438 -0.242364 -0.935406
vn -0.004095 0.829136 -0.559032
vn 0.572260 0.533394 -0.622904
vn 0.232980 -0.937022 -0.260211
vn 0.161878 -0.944561 -0.285656
vn 0.000000 -0.773715 -0.633534
vn -0.000000 1.000000 0.000000
vn -0.000000 1.000000 0.000000
vn 0.000000 1.000000 0.000000
vn 0.000000 1.000000 0.000000
vn 0.000000 1.000000 0.000000
vn -1.000000 0.000000 0.000000
vn 0.000000 -0.700169 -0.713977
vn -0.144671 -0.686302 -0.712783
vn 0.000000 -0.635158 -0.772382
vn 0.000000 -0.000000 1.000000
vn -0.000000 0.000000 1.000000
vn 0.000001 0.000000 1.000000
vn 0.994653 -0.003601 0.103207
vn 0.989116 -0.006728 -0.146982
vn 0.974832 0.000000 -0.222942
vn 0.968951 0.000000 -0.247252
vn 0.998414 -0.004424 0.056125
vn 0.978037 0.000245 0.208430

# Mesh
g trainwall3
usemtl lambert10
f 2/2/2 3/3/3 4/4/3 1/1/1
f 5/5/4 6/6/5 7/7/6 8/8/7
f 10/10/9 11/11/10 12/12/11 9/9/8
f 13/13/12 14/14/13 15/15/14 16/16/15
f 13/17/12 16/18/15 17/19/16 18/20/17
f 22/24/21 19/21/18 20/22/19 21/23/20
f 24/26/3 25/27/3 26/28/3 23/25/3
f 28/30/3 24/26/3 23/25/3 27/29/3
f 30/32/23 13/17/12 18/20/17 29/31/22
f 32/35/25 33/36/26 34/37/27 31/33/24 19/34/18
f 31/38/24 30/32/23 29/31/22 35/39/28
f 19/21/18 31/38/24 35/39/28 20/22/19
f 38/42/29 39/43/29 36/40/29 37/41/29
f 43/47/33 40/44/30 41/45/31 42/46/32
f 8/51/7 7/48/6 44/49/34 45/50/25
f 49/55/37 46/52/25 47/53/35 48/54/36
f 53/59/41 50/56/38 51/57/39 52/58/40
f 46/52/25 55/62/43 54/60/42 47/61/35
f 56/63/44 57/64/45 58/65/46 59/66/47
f 57/64/45 60/67/48 61/68/49 58/65/46
f 62/69/50 56/63/44 59/66/47 63/70/51
f 64/71/52 62/69/50 63/70/51 65/72/53
f 66/73/54 67/74/25 46/52/25 49/55/37
f 68/75/55 69/76/56 70/77/57 71/78/58
f 69/76/56 72/79/59 73/80/60 70/77/57
f 72/79/59 74/81/61 75/82/62 73/80/60
f 74/81/61 76/83/63 77/84/64 75/82/62
f 78/85/65 79/86/66 80/87/67 81/88/68
f 59/91/47 58/92/46 74/89/61 72/90/59
f 79/86/66 82/93/69 83/94/70 80/87/67
f 58/92/46 61/96/49 76/95/63 74/89/61
f 84/97/71 78/85/65 81/88/68 85/98/72
f 63/100/51 59/91/47 72/90/59 69/99/56
f 86/101/73 84/97/71 85/98/72 87/102/74
f 65/104/53 63/100/51 69/99/56 68/103/55
f 79/86/66 78/85/65 66/105/54 49/106/37
f 81/107/68 80/108/67 57/64/45 56/63/44
f 82/93/69 79/86/66 49/106/37 48/109/36
f 80/108/67 83/110/70 60/67/48 57/64/45
f 78/85/65 84/97/71 88/111/75 66/105/54
f 85/112/72 81/107/68 56/63/44 62/69/50
f 84/97/71 86/101/73 89/113/76 88/111/75
f 87/114/74 85/112/72 62/69/50 64/71/52
f 91/116/29 38/42/29 37/41/29 90/115/29
f 83/119/70 93/120/78 92/117/77 60/118/48
f 61/96/49 95/122/80 94/121/79 76/95/63
f 97/126/82 96/123/81 75/124/62 77/125/64
f 96/123/81 98/128/83 73/127/60 75/124/62
f 100/130/85 68/75/55 71/78/58 99/129/84
f 101/131/86 86/101/73 87/102/74 102/132/87
f 86/101/73 101/131/86 103/133/88 89/113/76
f 104/134/89 105/135/90 106/136/91 107/137/92
f 109/139/94 110/140/95 111/141/96 108/138/93
f 108/138/93 111/141/96 113/143/98 112/142/97
f 114/144/99 6/145/5 115/146/100 116/147/101
f 118/149/103 119/150/104 120/151/105 117/148/102
f 39/43/29 53/152/41 52/153/40 36/40/29
f 105/135/90 104/134/89 15/15/14 14/14/13
f 107/137/92 106/136/91 121/154/106 122/155/107
f 109/139/94 108/138/93 34/37/27 33/36/26
f 111/141/96 110/140/95 123/156/108 124/157/3
f 110/160/95 109/161/94 33/158/26 123/159/108
f 108/138/93 112/142/97 125/162/109 34/37/27
f 113/143/98 111/141/96 124/157/3 126/163/3
f 6/145/5 114/144/99 44/49/34 7/48/6
f 118/149/103 117/148/102 54/60/42 55/62/43
f 117/166/102 120/167/105 127/164/110 54/165/42
f 120/151/105 119/150/104 128/168/111 127/169/110
f 11/11/10 130/171/113 129/170/112 12/12/11
f 104/174/89 131/175/114 16/172/15 15/173/14
f 134/178/117 135/179/118 132/176/115 133/177/116
f 137/181/120 134/178/117 133/177/116 136/180/119
f 136/180/119 133/177/116 139/183/122 138/182/121
f 142/186/125 143/187/126 140/184/123 141/185/124
f 145/189/128 142/186/125 141/185/124 144/188/127
f 147/191/130 48/54/36 47/53/35 146/190/129
f 148/192/131 5/5/4 8/8/7 149/193/132
f 151/195/134 152/196/135 153/197/136 150/194/133
f 134/198/117 137/199/120 130/200/113 11/201/10
f 135/203/118 134/198/117 11/201/10 10/202/9
f 154/204/137 135/203/118 10/202/9 155/205/138
f 12/12/11 129/170/112 143/187/126 142/186/125
f 9/9/8 12/12/11 142/186/125 145/189/128
f 156/206/139 9/9/8 145/189/128 157/207/140
f 161/211/144 158/208/141 159/209/142 160/210/143
f 141/185/124 140/184/123 115/212/100 6/6/5
f 116/147/101 115/146/100 162/213/145 163/214/146
f 165/216/148 161/211/144 160/210/143 164/215/147
f 138/182/121 139/183/122 104/174/89 107/217/92
f 167/219/150 168/220/151 166/218/149 131/175/114
f 139/183/122 167/219/150 131/175/114 104/174/89
f 144/188/127 141/185/124 6/6/5 5/5/4
f 169/221/152 144/188/127 5/5/4 148/192/131
f 152/196/135 170/222/153 171/223/154 153/197/136
f 173/225/156 172/224/155 158/208/141 161/211/144
f 177/229/160 174/226/157 175/227/158 176/228/159
f 176/228/159 175/227/158 172/224/155 173/225/156
f 179/231/162 176/228/159 173/225/156 178/230/161
f 178/230/161 173/225/156 161/211/144 165/216/148
f 180/233/163 82/93/69 48/109/36 147/232/130
f 82/93/69 180/233/163 93/234/78 83/94/70
f 60/118/48 92/117/77 95/235/80 61/236/49
f 76/83/63 94/237/79 97/238/82 77/84/64
f 71/241/58 70/239/57 73/127/60 98/128/83 99/240/84
f 181/243/164 65/104/53 68/103/55 100/242/85
f 182/246/165 64/247/52 65/244/53 181/245/164
f 102/248/87 87/249/74 64/247/52 182/246/165
f 157/207/140 145/189/128 144/188/127 169/221/152
f 155/250/138 10/10/9 9/9/8 156/206/139
f 135/179/118 154/251/137 183/252/166 132/176/115
f 133/177/116 132/176/115 167/219/150 139/183/122
f 131/175/114 166/218/149 184/253/167 16/172/15
f 16/18/15 184/254/167 185/255/167 17/19/16
f 187/257/168 188/258/169 189/259/170 186/256/168
f 191/261/172 192/262/173 193/263/174 190/260/171
f 194/264/175 195/265/176 196/266/177 197/267/178
f 199/269/180 200/270/181 201/271/182 198/268/179
f 201/273/182 200/274/181 203/275/3 202/272/183
f 205/277/185 22/24/21 21/23/20 204/276/184
f 207/279/168 208/280/168 209/281/168 206/278/168
f 211/283/168 187/257/168 186/256/168 210/282/168
f 200/274/181 213/285/187 212/284/186 203/275/3
f 213/285/187 214/286/188 215/287/189 212/284/186
f 214/286/188 205/277/185 204/276/184 215/287/189
f 219/291/29 216/288/29 217/289/29 218/290/29
f 222/294/168 223/295/168 220/292/168 221/293/168
f 227/299/191 224/296/25 225/297/25 226/298/190
f 225/297/25 230/302/193 228/300/192 229/301/25
f 223/295/168 232/304/194 231/303/194 220/292/168
f 226/298/190 225/297/25 229/301/25 233/305/195 234/306/196
f 236/308/198 237/309/199 238/310/200 235/307/197
f 240/312/202 236/308/198 235/307/197 239/311/201
f 237/309/199 241/313/203 242/314/204 238/310/200
f 241/313/203 243/315/205 244/316/206 242/314/204
f 193/321/174 245/317/207 246/318/208 247/319/209 248/320/25
f 250/323/211 251/324/212 99/240/84 98/128/83 249/322/210
f 98/128/83 96/123/81 252/325/213 249/322/210
f 253/327/214 254/328/215 251/329/212 250/326/211
f 255/331/216 253/327/214 250/326/211 249/330/210
f 256/333/217 255/331/216 249/330/210 252/332/213
f 258/335/219 256/333/217 252/332/213 257/334/218
f 260/337/221 261/338/222 262/339/223 259/336/220
f 235/343/197 238/340/200 255/341/216 256/342/217
f 264/345/225 260/337/221 259/336/220 263/344/224
f 239/347/201 235/343/197 256/342/217 258/346/219
f 261/338/222 265/348/226 266/349/227 262/339/223
f 238/340/200 242/350/204 253/351/214 255/341/216
f 265/348/226 267/352/228 268/353/229 266/349/227
f 242/350/204 244/354/206 254/355/215 253/351/214
f 261/338/222 260/337/221 230/356/193 269/357/230
f 259/359/220 262/358/223 237/309/199 236/308/198
f 260/337/221 264/345/225 228/360/192 230/356/193
f 263/361/224 259/359/220 236/308/198 240/312/202
f 265/348/226 261/338/222 269/357/230 247/362/209
f 262/358/223 266/363/227 241/313/203 237/309/199
f 267/352/228 265/348/226 247/362/209 246/364/208
f 266/363/227 268/365/229 243/315/205 241/313/203
f 216/288/29 91/116/29 90/115/29 217/289/29
f 93/120/78 263/366/224 240/367/202 92/117/77
f 95/122/80 239/347/201 258/346/219 94/121/79
f 96/123/81 97/126/82 257/368/218 252/325/213
f 254/328/215 100/130/85 99/129/84 251/329/212
f 267/352/228 101/131/86 102/132/87 268/353/229
f 101/131/86 267/352/228 246/364/208 103/133/88
f 271/370/232 272/371/233 273/372/234 270/369/231
f 274/373/235 275/374/236 276/375/237 277/376/238
f 278/377/239 279/378/240 271/370/232 270/369/231
f 281/380/242 282/381/243 283/382/244 280/379/241
f 280/379/241 283/382/244 284/383/245 285/384/246
f 232/386/194 219/291/29 218/290/29 231/385/194
f 272/371/233 271/370/232 199/269/180 198/268/179
f 270/369/231 273/372/234 286/387/247 287/388/248
f 276/375/237 275/374/236 288/389/249 289/390/250
f 274/373/235 277/376/238 290/391/168 291/392/251
f 275/396/236 274/393/235 291/394/251 288/395/249
f 271/370/232 279/378/240 292/397/252 199/269/180
f 278/377/239 270/369/231 287/388/248 293/398/168
f 283/382/244 282/381/243 227/299/191 226/298/190
f 284/383/245 283/382/244 226/298/190 234/306/196
f 285/402/246 284/399/245 234/400/196 294/401/253
f 280/379/241 285/384/246 294/403/253 295/404/168
f 297/406/255 194/264/175 197/267/178 296/405/254
f 298/410/256 272/407/233 198/408/179 201/409/182
f 302/414/260 299/411/257 300/412/258 301/413/259
f 299/411/257 303/415/261 304/416/262 300/412/258
f 301/413/259 300/412/258 305/417/263 306/418/264 307/419/265
f 300/412/258 304/416/262 308/420/266 305/417/263
f 312/424/270 309/421/267 310/422/268 311/423/269
f 309/421/267 313/425/271 314/426/272 310/422/268
f 228/300/192 147/191/130 146/190/129 233/305/195 229/301/25
f 316/429/274 317/430/275 315/427/273 245/428/207
f 319/432/277 320/433/278 321/434/279 318/431/276
f 303/436/261 299/437/257 194/438/175 297/435/255
f 299/437/257 302/439/260 195/440/176 194/438/175
f 324/443/282 325/444/283 322/441/280 323/442/281
f 296/405/254 197/267/178 309/421/267 312/424/270
f 197/267/178 196/266/177 313/425/271 309/421/267
f 328/447/286 329/448/287 326/445/284 327/446/285
f 332/451/290 333/452/291 330/449/288 331/450/289
f 311/423/269 310/422/268 191/261/172 334/453/292
f 281/380/242 280/379/241 295/404/168 335/454/168
f 333/452/291 336/455/293 337/456/294 330/449/288
f 305/417/263 308/420/266 273/457/234 272/407/233
f 338/458/295 339/459/296 340/460/297 341/461/298
f 306/418/264 305/417/263 272/407/233 298/410/256
f 310/422/268 314/426/272 192/262/173 191/261/172
f 342/462/299 343/463/300 317/430/275 316/429/274
f 345/465/302 319/432/277 318/431/276 344/464/301
f 346/466/303 347/467/304 333/452/291 332/451/290
f 350/470/307 351/471/308 348/468/305 349/469/306
f 349/469/306 348/468/305 347/467/304 346/466/303
f 348/468/305 352/472/309 353/473/310 347/467/304
f 347/467/304 353/473/310 336/455/293 333/452/291
f 264/345/225 180/233/163 147/232/130 228/360/192
f 180/233/163 264/345/225 263/344/224 93/234/78
f 92/117/77 240/367/202 239/474/201 95/235/80
f 94/237/79 258/335/219 257/334/218 97/238/82
f 244/354/206 181/243/164 100/242/85 254/355/215
f 243/476/205 182/246/165 181/245/164 244/475/206
f 268/477/229 102/248/87 182/246/165 243/476/205
f 327/446/285 326/445/284 343/463/300 342/462/299
f 323/479/281 322/478/280 329/448/287 328/447/286
f 325/481/283 324/482/282 355/483/312 354/480/311
f 354/480/311 355/483/312 339/459/296 338/458/295
f 341/461/298 340/460/297 357/485/314 356/484/313
f 356/487/313 357/488/314 359/489/167 358/486/315
f 153/490/136 360/491/316 41/492/31 150/493/133
f 40/496/30 151/497/134 150/494/133 41/495/31
f 158/498/141 107/217/92 122/499/107 159/500/142
f 115/212/100 165/503/148 164/501/147 162/502/145
f 171/504/154 1/505/1 360/491/316 153/490/136
f 170/507/153 2/508/2 1/509/1 171/506/154
f 172/510/155 138/182/121 107/217/92 158/498/141
f 130/171/113 177/512/160 176/511/159 129/170/112
f 130/200/113 137/199/120 174/226/157 177/229/160
f 174/513/157 137/181/120 136/180/119 175/514/158
f 175/514/158 136/180/119 138/182/121 172/510/155
f 129/170/112 176/511/159 179/515/162 143/187/126
f 143/187/126 179/515/162 178/516/161 140/184/123
f 140/184/123 178/516/161 165/503/148 115/212/100
f 320/518/278 361/519/317 362/520/318 321/517/279
f 363/523/316 318/524/276 321/521/279 362/522/318
f 273/457/234 332/527/290 331/525/289 286/526/247
f 336/528/293 334/453/292 364/529/319 337/530/294
f 188/533/169 345/534/302 344/531/301 189/532/170
f 189/535/170 344/536/301 318/524/276 363/523/316
f 308/420/266 346/537/303 332/527/290 273/457/234
f 303/415/261 350/539/307 349/538/306 304/416/262
f 303/436/261 297/435/255 351/471/308 350/470/307
f 351/540/308 297/406/255 296/405/254 348/541/305
f 304/416/262 349/538/306 346/537/303 308/420/266
f 352/542/309 312/424/270 311/423/269 353/543/310
f 348/541/305 296/405/254 312/424/270 352/542/309
f 353/543/310 311/423/269 334/453/292 336/528/293
f 132/176/115 183/252/166 168/220/151 167/219/150
f 291/392/251 290/391/168 208/280/168 207/279/168
f 293/398/168 287/388/248 187/257/168 211/283/168
f 287/388/248 286/387/247 188/258/169 187/257/168
f 286/526/247 331/525/289 345/534/302 188/533/169
f 331/450/289 330/449/288 319/432/277 345/465/302
f 330/449/288 337/456/294 320/433/278 319/432/277
f 337/530/294 364/529/319 361/519/317 320/518/278
f 335/454/168 295/404/168 223/295/168 222/294/168
f 295/404/168 294/403/253 232/304/194 223/295/168
f 294/401/253 234/400/196 219/291/29 232/386/194
f 234/400/196 233/544/195 216/288/29 219/291/29
f 233/544/195 146/545/129 91/116/29 216/288/29
f 146/545/129 47/546/35 38/42/29 91/116/29
f 47/546/35 54/165/42 39/43/29 38/42/29
f 54/165/42 127/164/110 53/152/41 39/43/29
f 127/169/110 128/168/111 50/56/38 53/59/41
f 163/214/146 162/213/145 40/44/30 43/47/33
f 162/502/145 164/501/147 151/497/134 40/496/30
f 164/215/147 160/210/143 152/196/135 151/195/134
f 160/210/143 159/209/142 170/222/153 152/196/135
f 159/500/142 122/499/107 2/508/2 170/507/153
f 122/155/107 121/154/106 3/3/3 2/2/2
f 126/163/3 124/157/3 24/26/3 28/30/3
f 124/157/3 123/156/108 25/27/3 24/26/3
f 208/280/168 211/283/168 210/282/168 209/281/168
f 290/391/168 293/398/168 211/283/168 208/280/168
f 277/376/238 278/377/239 293/398/168 290/391/168
f 277/376/238 276/375/237 279/378/240 278/377/239
f 279/378/240 276/375/237 289/390/250 292/397/252
f 292/397/252 213/547/187 200/270/181 199/269/180
f 289/390/250 214/548/188 213/547/187 292/397/252
f 3/3/3 28/30/3 27/29/3 4/4/3
f 121/154/106 126/163/3 28/30/3 3/3/3
f 106/136/91 113/143/98 126/163/3 121/154/106
f 112/142/97 113/143/98 106/136/91 105/135/90
f 112/142/97 105/135/90 14/14/13 125/162/109
f 30/549/23 125/162/109 14/14/13 13/13/12
f 31/33/24 34/37/27 125/162/109 30/549/23
f 365/551/25 32/35/25 19/34/18 22/550/21
f 288/389/249 366/552/25 205/553/185 214/548/188 289/390/250
f 366/552/25 365/551/25 22/550/21 205/553/185
f 50/56/38 367/554/320 368/555/321 51/57/39
f 128/168/111 369/556/322 367/554/320 50/56/38
f 119/150/104 370/557/323 369/556/322 128/168/111
f 371/558/324 370/557/323 119/150/104 118/149/103
f 371/558/324 118/149/103 55/62/43 372/559/325
f 67/74/25 372/559/325 55/62/43 46/52/25
f 315/560/273 149/561/132 89/562/76 103/563/88
f 45/50/25 44/49/34 372/559/325 67/74/25
f 114/144/99 371/558/324 372/559/325 44/49/34
f 371/558/324 114/144/99 116/147/101 370/557/323
f 370/557/323 116/147/101 163/214/146 369/556/322
f 369/556/322 163/214/146 43/47/33 367/554/320
f 367/554/320 43/47/33 42/46/32 368/555/321
f 88/564/75 45/50/25 67/74/25 66/73/54
f 361/567/317 374/568/168 373/565/168 362/566/318
f 364/569/319 375/570/168 374/568/168 361/567/317
f 334/571/292 376/572/326 375/570/168 364/569/319
f 191/573/172 377/574/327 376/572/326 334/571/292
f 377/574/327 191/573/172 190/575/171 378/576/328
f 190/575/171 193/321/174 248/320/25 378/576/328
f 374/568/168 222/294/168 221/293/168 373/565/168
f 375/570/168 335/454/168 222/294/168 374/568/168
f 376/572/326 281/380/242 335/454/168 375/570/168
f 377/574/327 282/381/243 281/380/242 376/572/326
f 282/381/243 377/574/327 378/576/328 227/299/191
f 378/576/328 248/320/25 224/296/25 227/299/191
f 248/320/25 247/319/209 269/577/230 224/296/25
f 224/296/25 269/577/230 230/302/193 225/297/25
f 317/430/275 148/192/131 149/193/132 315/427/273
f 343/463/300 169/221/152 148/192/131 317/430/275
f 326/445/284 157/207/140 169/221/152 343/463/300
f 329/448/287 156/206/139 157/207/140 326/445/284
f 322/478/280 155/250/138 156/206/139 329/448/287
f 325/444/283 154/204/137 155/205/138 322/441/280
f 154/251/137 325/481/283 354/480/311 183/252/166
f 183/252/166 354/480/311 338/458/295 168/220/151
f 168/220/151 338/458/295 341/461/298 166/218/149
f 166/218/149 341/461/298 356/484/313 184/253/167
f 184/254/167 356/487/313 358/486/315 185/255/167
f 192/262/173 316/429/274 245/428/207 193/263/174
f 314/426/272 342/462/299 316/429/274 192/262/173
f 313/425/271 327/446/285 342/462/299 314/426/272
f 196/266/177 328/447/286 327/446/285 313/425/271
f 195/265/176 323/479/281 328/447/286 196/266/177
f 302/439/260 324/443/282 323/442/281 195/440/176
f 324/482/282 302/414/260 301/413/259 355/483/312
f 245/317/207 315/560/273 103/563/88 246/318/208
f 149/561/132 8/51/7 45/50/25 88/564/75 89/562/76
f 339/459/296 306/418/264 298/410/256 340/460/297
f 340/460/297 298/410/256 201/409/182 357/485/314
f 357/488/314 201/273/182 202/272/183 359/489/167
f 355/483/312 301/413/259 307/419/265 306/418/264 339/459/296
