# File produced by Open Asset Import Library (http://www.assimp.sf.net)
# (assimp v3.1.137539927)

mtllib doorflap.mtl

# vertex positions
v 64.974716 10.670653 -82.228760
v 64.974716 8.841926 -82.228760
v 64.974716 8.841926 -81.546204
v 64.974716 10.670653 -81.546204
v 65.801842 28.498720 -82.228760
v 64.974716 28.498720 -82.228760
v 64.974716 28.498720 -81.546204
v 65.801842 28.498720 -81.546204
v 65.801842 8.841926 -82.228760
v 65.801842 10.670653 -82.228760
v 65.801842 10.670653 -81.546204
v 65.801842 8.841926 -81.546204
v 64.974716 10.670653 -73.786407
v 64.974716 8.841926 -73.786407
v 65.801842 8.841926 -73.786407
v 65.801842 10.670653 -73.786407
v 65.801842 26.367193 -82.228760
v 64.974716 26.367193 -82.228760
v 65.801842 26.367193 -81.546204
v 64.974716 28.498720 -73.786407
v 64.974716 26.367193 -73.786407
v 65.801842 26.367193 -73.786407
v 65.801842 28.498720 -73.786407
v 64.974716 26.367193 -81.546204
v 65.801842 20.808458 -82.228760
v 64.974716 20.808458 -82.228760
v 65.801842 20.808458 -81.546204
v 64.974716 20.808458 -73.786407
v 65.801842 20.808458 -73.786407
v 64.974716 20.808458 -81.546204
v 65.801842 18.979734 -82.228760
v 64.974716 18.979734 -82.228760
v 65.801842 18.979734 -81.546204
v 64.974716 18.979734 -73.786407
v 65.801842 18.979734 -73.786407
v 64.974716 18.979734 -81.546204
v 65.801842 28.498720 -74.468948
v 64.974716 28.498720 -74.468948
v 65.801842 26.367193 -74.468948
v 65.801842 20.808458 -74.468948
v 65.801842 18.979734 -74.468948
v 65.801842 10.670653 -74.468948
v 65.801842 8.841926 -74.468948
v 64.974716 8.841926 -74.468948
v 64.974716 10.670653 -74.468948
v 64.974716 18.979734 -74.468948
v 64.974716 20.808458 -74.468948
v 64.974716 26.367193 -74.468948
v 65.401039 18.979734 -74.468948
v 65.401039 18.979734 -81.546204
v 65.401039 10.670653 -81.546204
v 65.401039 10.670653 -74.468948
v 65.401039 26.367193 -74.468948
v 65.401039 26.367193 -81.546204
v 65.401039 20.808458 -81.546204
v 65.401039 20.808458 -74.468948

# UV coordinates
vt 0.228221 0.131527
vt 0.228013 0.050802
vt 0.258446 0.050848
vt 0.258698 0.132155
vt 0.253997 0.996935
vt 0.251629 0.959792
vt 0.282156 0.958357
vt 0.284338 0.995188
vt 0.702406 0.590495
vt 0.702406 0.562717
vt 0.785739 0.562717
vt 0.785739 0.590495
vt 0.702406 0.840495
vt 0.785739 0.840495
vt 0.621981 0.123490
vt 0.629991 0.041977
vt 0.666899 0.045167
vt 0.658849 0.125943
vt 0.191204 0.134755
vt 0.184662 0.052875
vt 0.220968 0.051010
vt 0.214814 0.961237
vt 0.209919 0.865120
vt 0.246750 0.863672
vt 0.702406 0.423828
vt 0.702406 0.340495
vt 0.785739 0.340495
vt 0.785739 0.423828
vt 0.634227 0.946707
vt 0.632995 0.851684
vt 0.669791 0.851925
vt 0.671001 0.946575
vt 0.277090 0.863190
vt 0.200944 0.601466
vt 0.237822 0.599681
vt 0.702406 0.507161
vt 0.785739 0.507161
vt 0.629097 0.590024
vt 0.665971 0.590840
vt 0.268243 0.598120
vt 0.197958 0.517907
vt 0.234649 0.517125
vt 0.702406 0.534939
vt 0.785739 0.534939
vt 0.628153 0.508246
vt 0.665021 0.508767
vt 0.265042 0.516604
vt 0.605460 0.984204
vt 0.603947 0.947376
vt 0.635697 0.983357
vt 0.952406 0.423828
vt 0.869072 0.423828
vt 0.869072 0.340495
vt 0.952406 0.340495
vt 0.952406 0.507161
vt 0.869072 0.507161
vt 0.952406 0.534939
vt 0.869072 0.534939
vt 0.952406 0.562717
vt 0.869072 0.562717
vt 0.952406 0.590495
vt 0.869072 0.590495
vt 0.952406 0.840495
vt 0.869072 0.840495
vt 0.591398 0.124810
vt 0.587125 0.043093
vt 0.617526 0.041530
vt 0.597767 0.508899
vt 0.598643 0.589863
vt 0.602703 0.852885
vt 0.584415 0.498164
vt 0.277057 0.504307
vt 0.271948 0.143038
vt 0.579419 0.137138
vt 0.590633 0.840913
vt 0.287374 0.849618
vt 0.280540 0.609950
vt 0.588006 0.603229

# vertex normals
vn -1.000000 0.000000 0.000000
vn -1.000000 0.000000 0.000000
vn 0.000000 1.000000 0.000000
vn 1.000000 0.000000 -0.000000
vn 1.000000 0.000000 -0.000000
vn 0.000000 -1.000000 0.000000
vn 0.000000 0.000000 1.000000
vn -0.000000 0.000000 -1.000000

# Mesh
g pCube1512
usemtl standardSurface1
f 4/4/2 1/1/1 2/2/2 3/3/1
f 8/8/3 5/5/3 6/6/3 7/7/3
f 10/10/5 11/11/5 12/12/5 9/9/4
f 9/9/6 12/12/6 3/14/6 2/13/6
f 15/17/7 16/18/7 13/15/7 14/16/7
f 10/19/8 9/20/8 2/21/8 1/1/8
f 5/22/8 17/23/8 18/24/8 6/6/8
f 5/26/5 8/27/5 19/28/5 17/25/4
f 22/31/7 23/32/7 20/29/7 21/30/7
f 7/7/1 6/6/1 18/24/2 24/33/1
f 17/23/8 25/34/8 26/35/8 18/24/8
f 17/25/4 19/28/5 27/37/5 25/36/5
f 29/39/7 22/31/7 21/30/7 28/38/7
f 24/33/1 18/24/2 26/35/1 30/40/2
f 25/34/8 31/41/8 32/42/8 26/35/8
f 25/36/5 27/37/5 33/44/4 31/43/5
f 35/46/7 29/39/7 28/38/7 34/45/7
f 30/40/2 26/35/1 32/42/1 36/47/2
f 31/41/8 10/19/8 1/1/8 32/42/8
f 31/43/5 33/44/4 11/11/5 10/10/5
f 16/18/7 35/46/7 34/45/7 13/15/7
f 36/47/2 32/42/1 1/1/1 4/4/2
f 23/50/3 37/48/3 38/49/3 20/29/3
f 37/53/5 23/54/5 22/51/5 39/52/5
f 39/52/5 22/51/5 29/55/5 40/56/5
f 40/56/5 29/55/5 35/57/5 41/58/5
f 41/58/5 35/57/5 16/59/5 42/60/5
f 42/60/5 16/59/5 15/61/4 43/62/5
f 43/62/6 15/61/6 14/63/6 44/64/6
f 13/15/1 45/65/1 44/66/1 14/67/2
f 34/45/1 46/68/1 45/65/1 13/15/1
f 28/38/1 47/69/1 46/68/1 34/45/1
f 21/30/1 48/70/2 47/69/1 28/38/1
f 20/29/1 38/49/1 48/70/2 21/30/1
f 37/48/3 8/8/3 7/7/3 38/49/3
f 8/27/5 37/53/5 39/52/5 19/28/5
f 19/28/5 39/52/5 40/56/5 27/37/5
f 27/37/5 40/56/5 41/58/5 33/44/4
f 33/44/4 41/58/5 42/60/5 11/11/5
f 11/11/5 42/60/5 43/62/5 12/12/5
f 12/12/6 43/62/6 44/64/6 3/14/6
f 45/65/1 4/4/2 3/3/1 44/66/1
f 49/71/1 50/72/1 51/73/1 52/74/1
f 47/69/1 30/40/2 36/47/2 46/68/1
f 53/75/1 54/76/1 55/77/1 56/78/1
f 38/49/1 7/7/1 24/33/1 48/70/2
f 51/73/7 50/72/7 36/47/7 4/4/7
f 52/74/3 51/73/3 4/4/3 45/65/3
f 49/71/8 52/74/8 45/65/8 46/68/8
f 50/72/6 49/71/6 46/68/6 36/47/6
f 55/77/7 54/76/7 24/33/7 30/40/7
f 56/78/3 55/77/3 30/40/3 47/69/3
f 53/75/8 56/78/8 47/69/8 48/70/8
f 54/76/6 53/75/6 48/70/6 24/33/6
